<?xml version="1.0" encoding="utf-8"?>
<!-- Generator: Adobe Illustrator 17.0.0, SVG Export Plug-In . SVG Version: 6.00 Build 0)  -->
<!DOCTYPE svg PUBLIC "-//W3C//DTD SVG 1.1//EN" "http://www.w3.org/Graphics/SVG/1.1/DTD/svg11.dtd">
<svg version="1.1" id="Layer_1" xmlns="http://www.w3.org/2000/svg" xmlns:xlink="http://www.w3.org/1999/xlink" x="0px" y="0px"
	 width="100%" height="100%" viewBox="0 0 250 250" enable-background="new 0 0 250 250" xml:space="preserve">
<g id="Texas" class="texas-wrapper">
	<g>
		<polyline fill="#000" points="179.182,230.45 172.939,213.018 177.084,189.266 201.399,177.985 214.783,165.506
			236.591,154.065 238.492,143.659 238.049,138.408 241.108,128.751 234.865,116.235 230.388,110.708 228.146,80.508
			222.146,74.508 210.19,73.793 204.738,73.384 195.364,79.184 165.893,78.888 160.883,73.001 146.422,73.001 140.76,67.256
			136.315,69.918 126.705,64.099 125.48,26.519 119.48,20.519 73.871,114.636 12.303,110.379 12.303,114.555 31.199,134.776
			44.663,142.855 50.854,167.402 70.323,175.327 75.709,169.941 79.294,156.002 96.856,155.368 113.737,169.429 133.031,198.365
			138.307,216.222 144.307,222.222 167.264,232.649 		"/>
	</g>
	<g>
		<linearGradient id="SVGID_1_" gradientUnits="userSpaceOnUse" x1="172.2297" y1="-16.8401" x2="72.2297" y2="249.1599">
			<stop  offset="0" style="stop-color:#6CC7F0"/>
			<stop  offset="1" style="stop-color:#55B0DC"/>
		</linearGradient>
		<polyline fill="url(#SVGID_1_)" points="173.182,224.45 166.939,207.018 171.084,183.266 195.399,171.985 208.783,159.506
			230.591,148.065 232.492,137.659 232.049,132.408 235.108,122.751 228.865,110.235 224.388,104.708 222.146,74.508
			215.327,74.012 204.19,67.793 198.738,67.384 189.364,73.184 159.893,72.888 154.883,67.001 140.422,67.001 134.76,61.256
			130.315,63.918 120.705,58.099 119.48,20.519 72.808,19.356 67.871,108.636 6.303,104.379 6.303,108.555 25.199,128.776
			38.663,136.855 50.067,163.307 64.323,169.327 69.709,163.941 73.294,150.002 90.856,149.368 107.737,163.429 127.031,192.365
			130.896,195.901 138.307,216.222 161.264,226.649 		"/>
	</g>
</g>
</svg>
