<svg xmlns="http://www.w3.org/2000/svg" viewBox="0 0 250 250" enable-background="new 0 0 250 250"><g><path d="M179.182 230.45l-6.243-17.432 4.144-23.752 24.315-11.28 13.383-12.48 21.808-11.44 1.902-10.407-.443-5.252 3.058-9.657-6.243-12.515-4.477-5.527-2.242-30.2-6-6-11.956-.715-5.452-.41-9.374 5.8-29.47-.295-5.01-5.887H146.42l-5.662-5.744-4.445 2.662-9.61-5.82-1.225-37.58-6-6-45.61 94.118-61.567-4.257v4.175l18.896 20.22 13.463 8.08 6.19 24.547 19.47 7.925 5.386-5.386 3.584-13.938 17.562-.634 16.88 14.06 19.295 28.937 5.277 17.857 6 6 22.957 10.427"/><linearGradient id="a" gradientUnits="userSpaceOnUse" x1="172.23" y1="-16.84" x2="72.23" y2="249.16"><stop offset="0" stop-color="#baffaf"/><stop offset="1" stop-color="#70f26b"/></linearGradient><path fill="url(#a)" d="M173.182 224.45l-6.243-17.432 4.144-23.752 24.315-11.28 13.383-12.48 21.808-11.44 1.902-10.407-.443-5.252 3.058-9.657-6.243-12.515-4.477-5.527-2.242-30.2-6.82-.496-11.136-6.22-5.452-.408-9.374 5.8-29.47-.296-5.01-5.887H140.42l-5.662-5.744-4.445 2.662-9.61-5.82-1.225-37.58-46.672-1.162-4.937 89.28-61.567-4.257v4.175l18.896 20.22 13.463 8.08 11.404 26.452 14.256 6.02 5.386-5.386 3.584-13.938 17.562-.634 16.88 14.06 19.295 28.937 3.866 3.536 7.41 20.322 22.958 10.427"/></g></svg>